<mxfile host="app.diagrams.net" modified="2022-03-31T08:53:50.972Z" agent="5.0 (Macintosh; Intel Mac OS X 10_15_7) AppleWebKit/605.1.15 (KHTML, like Gecko) Version/15.4 Safari/605.1.15" etag="xyIMiS9l2yUXs4Ww_htW" version="17.3.0" type="github">
  <diagram id="-Oa-h4sA0ID3HlsRM152" name="Page-1">
    <mxGraphModel dx="1993" dy="2240" grid="1" gridSize="10" guides="1" tooltips="1" connect="1" arrows="1" fold="1" page="0" pageScale="1" pageWidth="850" pageHeight="1100" math="0" shadow="0">
      <root>
        <mxCell id="0" />
        <mxCell id="1" parent="0" />
        <mxCell id="46EWXBRDZcVMdpm390SN-75" style="edgeStyle=orthogonalEdgeStyle;rounded=0;orthogonalLoop=1;jettySize=auto;html=1;entryX=0.5;entryY=0;entryDx=0;entryDy=0;fontSize=20;fontColor=#FF0000;startArrow=none;startFill=0;endArrow=none;endFill=0;" parent="1" source="46EWXBRDZcVMdpm390SN-1" target="46EWXBRDZcVMdpm390SN-3" edge="1">
          <mxGeometry relative="1" as="geometry" />
        </mxCell>
        <mxCell id="46EWXBRDZcVMdpm390SN-76" style="edgeStyle=orthogonalEdgeStyle;rounded=0;orthogonalLoop=1;jettySize=auto;html=1;entryX=1;entryY=0.5;entryDx=0;entryDy=0;fontSize=20;fontColor=#FF0000;startArrow=none;startFill=0;endArrow=none;endFill=0;" parent="1" source="46EWXBRDZcVMdpm390SN-1" target="46EWXBRDZcVMdpm390SN-2" edge="1">
          <mxGeometry relative="1" as="geometry" />
        </mxCell>
        <mxCell id="46EWXBRDZcVMdpm390SN-1" value="RadioHead" style="rounded=1;whiteSpace=wrap;html=1;fontSize=40;fontColor=#FF0000;fontStyle=1" parent="1" vertex="1">
          <mxGeometry x="264.5" y="-230" width="251" height="110" as="geometry" />
        </mxCell>
        <mxCell id="46EWXBRDZcVMdpm390SN-77" style="edgeStyle=orthogonalEdgeStyle;rounded=0;orthogonalLoop=1;jettySize=auto;html=1;entryX=0.5;entryY=0;entryDx=0;entryDy=0;fontSize=20;fontColor=#FF0000;startArrow=none;startFill=0;endArrow=classic;endFill=1;" parent="1" source="46EWXBRDZcVMdpm390SN-2" target="46EWXBRDZcVMdpm390SN-12" edge="1">
          <mxGeometry relative="1" as="geometry" />
        </mxCell>
        <mxCell id="46EWXBRDZcVMdpm390SN-2" value="Top 5 Popular Songs" style="rounded=1;whiteSpace=wrap;html=1;fontColor=#FF0000;strokeColor=#000000;fillColor=#000000;fontSize=20;" parent="1" vertex="1">
          <mxGeometry x="-80" y="-205" width="220" height="60" as="geometry" />
        </mxCell>
        <mxCell id="46EWXBRDZcVMdpm390SN-12" value="1. Creep&lt;br style=&quot;font-size: 15px;&quot;&gt;2. No Surprises&lt;br style=&quot;font-size: 15px;&quot;&gt;3. Karma Police&lt;br style=&quot;font-size: 15px;&quot;&gt;4. High and Dry&lt;br style=&quot;font-size: 15px;&quot;&gt;5. Exit Music" style="rounded=0;whiteSpace=wrap;html=1;align=left;labelPosition=center;verticalLabelPosition=middle;verticalAlign=middle;labelBackgroundColor=none;labelBorderColor=none;spacingTop=0;spacingLeft=10;fontColor=#FF0000;fillColor=#000000;fontSize=15;" parent="1" vertex="1">
          <mxGeometry x="-50" y="-70" width="160" height="130" as="geometry" />
        </mxCell>
        <mxCell id="46EWXBRDZcVMdpm390SN-72" style="edgeStyle=orthogonalEdgeStyle;rounded=0;orthogonalLoop=1;jettySize=auto;html=1;entryX=0.5;entryY=0;entryDx=0;entryDy=0;fontSize=20;fontColor=#FF0000;startArrow=none;startFill=0;endArrow=classic;endFill=1;" parent="1" source="46EWXBRDZcVMdpm390SN-45" target="46EWXBRDZcVMdpm390SN-71" edge="1">
          <mxGeometry relative="1" as="geometry" />
        </mxCell>
        <mxCell id="46EWXBRDZcVMdpm390SN-45" value="The King Of Limbs" style="rounded=1;whiteSpace=wrap;html=1;labelBackgroundColor=none;labelBorderColor=none;flipV=0;flipH=1;fillColor=#6d8764;fontColor=#ffffff;strokeColor=#3A5431;" parent="1" vertex="1">
          <mxGeometry x="1368" y="260" width="120" height="60" as="geometry" />
        </mxCell>
        <mxCell id="46EWXBRDZcVMdpm390SN-74" style="edgeStyle=orthogonalEdgeStyle;rounded=0;orthogonalLoop=1;jettySize=auto;html=1;entryX=0.5;entryY=0;entryDx=0;entryDy=0;fontSize=20;fontColor=#FF0000;startArrow=none;startFill=0;endArrow=classic;endFill=1;" parent="1" source="46EWXBRDZcVMdpm390SN-46" target="46EWXBRDZcVMdpm390SN-73" edge="1">
          <mxGeometry relative="1" as="geometry" />
        </mxCell>
        <mxCell id="46EWXBRDZcVMdpm390SN-46" value="A Moon &lt;br&gt;Shaped Pool" style="rounded=1;whiteSpace=wrap;html=1;labelBackgroundColor=none;labelBorderColor=none;flipV=0;flipH=1;strokeColor=#000000;fontColor=#FCFFFE;fillColor=#949494;" parent="1" vertex="1">
          <mxGeometry x="1655" y="260" width="120" height="60" as="geometry" />
        </mxCell>
        <mxCell id="46EWXBRDZcVMdpm390SN-47" style="edgeStyle=orthogonalEdgeStyle;rounded=0;orthogonalLoop=1;jettySize=auto;html=1;startArrow=none;startFill=0;endArrow=none;endFill=0;entryX=0.5;entryY=0;entryDx=0;entryDy=0;" parent="1" target="46EWXBRDZcVMdpm390SN-45" edge="1">
          <mxGeometry relative="1" as="geometry">
            <mxPoint x="1340" y="180" as="targetPoint" />
            <mxPoint x="480" y="180.00000000000023" as="sourcePoint" />
          </mxGeometry>
        </mxCell>
        <mxCell id="46EWXBRDZcVMdpm390SN-48" style="edgeStyle=orthogonalEdgeStyle;rounded=0;orthogonalLoop=1;jettySize=auto;html=1;startArrow=none;startFill=0;endArrow=none;endFill=0;entryX=0.5;entryY=0;entryDx=0;entryDy=0;" parent="1" target="46EWXBRDZcVMdpm390SN-46" edge="1">
          <mxGeometry relative="1" as="geometry">
            <mxPoint x="1615" y="180" as="targetPoint" />
            <mxPoint x="605" y="180.00000000000023" as="sourcePoint" />
          </mxGeometry>
        </mxCell>
        <mxCell id="46EWXBRDZcVMdpm390SN-61" style="edgeStyle=orthogonalEdgeStyle;rounded=0;orthogonalLoop=1;jettySize=auto;html=1;startArrow=none;startFill=0;endArrow=classic;endFill=1;" parent="1" source="46EWXBRDZcVMdpm390SN-19" target="46EWXBRDZcVMdpm390SN-54" edge="1">
          <mxGeometry relative="1" as="geometry" />
        </mxCell>
        <mxCell id="46EWXBRDZcVMdpm390SN-19" value="The Bends" style="rounded=1;whiteSpace=wrap;html=1;flipV=0;flipH=0;fillColor=#e51400;fontColor=#ffffff;strokeColor=#B20000;" parent="1" vertex="1">
          <mxGeometry x="180" y="260" width="120" height="60" as="geometry" />
        </mxCell>
        <mxCell id="46EWXBRDZcVMdpm390SN-60" style="edgeStyle=orthogonalEdgeStyle;rounded=0;orthogonalLoop=1;jettySize=auto;html=1;startArrow=none;startFill=0;endArrow=classic;endFill=1;" parent="1" source="46EWXBRDZcVMdpm390SN-21" target="46EWXBRDZcVMdpm390SN-55" edge="1">
          <mxGeometry relative="1" as="geometry" />
        </mxCell>
        <mxCell id="46EWXBRDZcVMdpm390SN-21" value="OK Computer" style="rounded=1;whiteSpace=wrap;html=1;flipV=0;flipH=0;fillColor=#D6F3FF;strokeColor=#10739e;" parent="1" vertex="1">
          <mxGeometry x="510" y="260" width="120" height="60" as="geometry" />
        </mxCell>
        <mxCell id="46EWXBRDZcVMdpm390SN-66" style="edgeStyle=orthogonalEdgeStyle;rounded=0;orthogonalLoop=1;jettySize=auto;html=1;fontSize=20;fontColor=#FF0000;startArrow=none;startFill=0;endArrow=classic;endFill=1;" parent="1" source="46EWXBRDZcVMdpm390SN-23" target="46EWXBRDZcVMdpm390SN-65" edge="1">
          <mxGeometry relative="1" as="geometry" />
        </mxCell>
        <mxCell id="46EWXBRDZcVMdpm390SN-23" value="KID A MNESIA" style="rounded=1;whiteSpace=wrap;html=1;flipV=0;flipH=0;fillColor=#822A19;fontColor=#ffffff;strokeColor=#6D1F00;" parent="1" vertex="1">
          <mxGeometry x="840" y="260" width="120" height="60" as="geometry" />
        </mxCell>
        <mxCell id="46EWXBRDZcVMdpm390SN-70" style="edgeStyle=orthogonalEdgeStyle;rounded=0;orthogonalLoop=1;jettySize=auto;html=1;entryX=0.5;entryY=0;entryDx=0;entryDy=0;fontSize=20;fontColor=#FF0000;startArrow=none;startFill=0;endArrow=classic;endFill=1;" parent="1" source="46EWXBRDZcVMdpm390SN-25" target="46EWXBRDZcVMdpm390SN-69" edge="1">
          <mxGeometry relative="1" as="geometry" />
        </mxCell>
        <mxCell id="46EWXBRDZcVMdpm390SN-25" value="In Rainbows" style="rounded=1;whiteSpace=wrap;html=1;flipV=0;flipH=1;fillColor=#fa6800;fontColor=#000000;strokeColor=#C73500;" parent="1" vertex="1">
          <mxGeometry x="1130" y="260" width="120" height="60" as="geometry" />
        </mxCell>
        <mxCell id="46EWXBRDZcVMdpm390SN-37" style="edgeStyle=orthogonalEdgeStyle;rounded=0;orthogonalLoop=1;jettySize=auto;html=1;startArrow=none;startFill=0;endArrow=none;endFill=0;entryX=1;entryY=0.5;entryDx=0;entryDy=0;exitX=0.5;exitY=0;exitDx=0;exitDy=0;" parent="1" source="46EWXBRDZcVMdpm390SN-19" edge="1">
          <mxGeometry relative="1" as="geometry">
            <mxPoint x="-40" y="180" as="targetPoint" />
            <Array as="points">
              <mxPoint x="230" y="180" />
            </Array>
          </mxGeometry>
        </mxCell>
        <mxCell id="46EWXBRDZcVMdpm390SN-38" style="edgeStyle=orthogonalEdgeStyle;rounded=0;orthogonalLoop=1;jettySize=auto;html=1;startArrow=none;startFill=0;endArrow=none;endFill=0;entryX=1;entryY=0.5;entryDx=0;entryDy=0;" parent="1" source="46EWXBRDZcVMdpm390SN-21" edge="1">
          <mxGeometry relative="1" as="geometry">
            <mxPoint x="180" y="180" as="targetPoint" />
            <Array as="points">
              <mxPoint x="550" y="180" />
            </Array>
          </mxGeometry>
        </mxCell>
        <mxCell id="46EWXBRDZcVMdpm390SN-39" style="edgeStyle=orthogonalEdgeStyle;rounded=0;orthogonalLoop=1;jettySize=auto;html=1;startArrow=none;startFill=0;endArrow=none;endFill=0;entryX=1;entryY=0.5;entryDx=0;entryDy=0;" parent="1" source="46EWXBRDZcVMdpm390SN-23" edge="1">
          <mxGeometry relative="1" as="geometry">
            <mxPoint x="290" y="180" as="targetPoint" />
            <Array as="points">
              <mxPoint x="900" y="180" />
            </Array>
          </mxGeometry>
        </mxCell>
        <mxCell id="46EWXBRDZcVMdpm390SN-43" style="edgeStyle=orthogonalEdgeStyle;rounded=0;orthogonalLoop=1;jettySize=auto;html=1;startArrow=none;startFill=0;endArrow=none;endFill=0;entryX=0.5;entryY=0;entryDx=0;entryDy=0;" parent="1" target="46EWXBRDZcVMdpm390SN-25" edge="1">
          <mxGeometry relative="1" as="geometry">
            <mxPoint x="1030" y="180" as="targetPoint" />
            <mxPoint x="350" y="180.00000000000023" as="sourcePoint" />
          </mxGeometry>
        </mxCell>
        <mxCell id="46EWXBRDZcVMdpm390SN-63" style="edgeStyle=orthogonalEdgeStyle;rounded=0;orthogonalLoop=1;jettySize=auto;html=1;startArrow=none;startFill=0;endArrow=none;endFill=0;" parent="1" source="46EWXBRDZcVMdpm390SN-3" edge="1">
          <mxGeometry relative="1" as="geometry">
            <mxPoint x="40" y="180" as="targetPoint" />
            <Array as="points">
              <mxPoint x="740" y="180" />
            </Array>
          </mxGeometry>
        </mxCell>
        <mxCell id="46EWXBRDZcVMdpm390SN-3" value="Popular Album" style="rounded=1;whiteSpace=wrap;html=1;fontColor=#FF0000;fontSize=20;" parent="1" vertex="1">
          <mxGeometry x="680" y="-150" width="120" height="60" as="geometry" />
        </mxCell>
        <mxCell id="46EWXBRDZcVMdpm390SN-52" style="edgeStyle=orthogonalEdgeStyle;rounded=0;orthogonalLoop=1;jettySize=auto;html=1;entryX=0.5;entryY=0;entryDx=0;entryDy=0;startArrow=none;startFill=0;endArrow=classic;endFill=1;" parent="1" source="46EWXBRDZcVMdpm390SN-18" target="46EWXBRDZcVMdpm390SN-51" edge="1">
          <mxGeometry relative="1" as="geometry" />
        </mxCell>
        <mxCell id="46EWXBRDZcVMdpm390SN-18" value="Pablo Honey" style="rounded=1;whiteSpace=wrap;html=1;flipV=0;flipH=0;fillColor=#e3c800;strokeColor=#B09500;fontColor=#000000;" parent="1" vertex="1">
          <mxGeometry x="-150" y="260" width="120" height="60" as="geometry" />
        </mxCell>
        <mxCell id="46EWXBRDZcVMdpm390SN-15" value="" style="edgeStyle=orthogonalEdgeStyle;rounded=0;orthogonalLoop=1;jettySize=auto;html=1;entryX=0.5;entryY=0;entryDx=0;entryDy=0;exitX=0.5;exitY=1;exitDx=0;exitDy=0;endArrow=none;endFill=0;startArrow=none;startFill=0;" parent="1" source="46EWXBRDZcVMdpm390SN-3" target="46EWXBRDZcVMdpm390SN-18" edge="1">
          <mxGeometry relative="1" as="geometry">
            <mxPoint x="-170" y="320" as="targetPoint" />
            <Array as="points">
              <mxPoint x="740" y="180" />
              <mxPoint x="-90" y="180" />
            </Array>
          </mxGeometry>
        </mxCell>
        <mxCell id="46EWXBRDZcVMdpm390SN-51" value="&lt;meta charset=&quot;utf-8&quot;&gt;&lt;table class=&quot;tracklist&quot; style=&quot;font-style: normal; font-weight: 400; letter-spacing: normal; text-indent: 0px; text-transform: none; word-spacing: 0px; text-decoration: none; font-size: 14px; color: rgb(32, 33, 34); font-family: sans-serif; display: block; border-spacing: 0px;&quot;&gt;&lt;tbody&gt;&lt;tr style=&quot;background-color: rgb(255 , 255 , 255)&quot;&gt;&lt;th id=&quot;track1&quot; scope=&quot;row&quot; style=&quot;padding-right: 10px ; text-align: right ; vertical-align: top ; font-weight: normal&quot;&gt;1.&lt;/th&gt;&lt;td style=&quot;vertical-align: top&quot;&gt;&quot;You&quot;&lt;/td&gt;&lt;td style=&quot;vertical-align: top&quot;&gt;&amp;nbsp;&lt;/td&gt;&lt;td style=&quot;padding-right: 10px ; text-align: right ; vertical-align: top&quot;&gt;3:29&lt;/td&gt;&lt;/tr&gt;&lt;tr style=&quot;background-color: rgb(247 , 247 , 247)&quot;&gt;&lt;th id=&quot;track2&quot; scope=&quot;row&quot; style=&quot;padding-right: 10px ; text-align: right ; vertical-align: top ; font-weight: normal&quot;&gt;2.&lt;/th&gt;&lt;td style=&quot;vertical-align: top&quot;&gt;&quot;&lt;a href=&quot;https://en.wikipedia.org/wiki/Creep_(Radiohead_song)&quot; title=&quot;Creep (Radiohead song)&quot; style=&quot;text-decoration: none ; color: rgb(11 , 0 , 128) ; background-image: none&quot;&gt;Creep&lt;/a&gt;&quot;&lt;/td&gt;&lt;td style=&quot;vertical-align: top&quot;&gt;Radiohead,&lt;span class=&quot;Apple-converted-space&quot;&gt;&amp;nbsp;&lt;/span&gt;&lt;a href=&quot;https://en.wikipedia.org/wiki/Mike_Hazlewood&quot; title=&quot;Mike Hazlewood&quot; style=&quot;text-decoration: none ; color: rgb(11 , 0 , 128) ; background-image: none&quot;&gt;Mike Hazlewood&lt;/a&gt;&lt;span class=&quot;Apple-converted-space&quot;&gt;&amp;nbsp;&lt;/span&gt;and&lt;span class=&quot;Apple-converted-space&quot;&gt;&amp;nbsp;&lt;/span&gt;&lt;a href=&quot;https://en.wikipedia.org/wiki/Albert_Hammond&quot; title=&quot;Albert Hammond&quot; style=&quot;text-decoration: none ; color: rgb(11 , 0 , 128) ; background-image: none&quot;&gt;Albert Hammond&lt;/a&gt;&lt;sup id=&quot;cite_ref-69&quot; class=&quot;reference&quot; style=&quot;line-height: 1; font-weight: normal; font-style: normal; font-size: 11.199999809265137px;&quot;&gt;&lt;a href=&quot;https://en.wikipedia.org/wiki/Pablo_Honey#cite_note-69&quot; style=&quot;text-decoration: none ; color: rgb(11 , 0 , 128) ; background-image: none&quot;&gt;[69]&lt;/a&gt;&lt;/sup&gt;&lt;/td&gt;&lt;td style=&quot;padding-right: 10px ; text-align: right ; vertical-align: top&quot;&gt;3:56&lt;/td&gt;&lt;/tr&gt;&lt;tr style=&quot;background-color: rgb(255 , 255 , 255)&quot;&gt;&lt;th id=&quot;track3&quot; scope=&quot;row&quot; style=&quot;padding-right: 10px ; text-align: right ; vertical-align: top ; font-weight: normal&quot;&gt;3.&lt;/th&gt;&lt;td style=&quot;vertical-align: top&quot;&gt;&quot;How Do You?&quot;&lt;/td&gt;&lt;td style=&quot;vertical-align: top&quot;&gt;&amp;nbsp;&lt;/td&gt;&lt;td style=&quot;padding-right: 10px ; text-align: right ; vertical-align: top&quot;&gt;2:12&lt;/td&gt;&lt;/tr&gt;&lt;tr style=&quot;background-color: rgb(247 , 247 , 247)&quot;&gt;&lt;th id=&quot;track4&quot; scope=&quot;row&quot; style=&quot;padding-right: 10px ; text-align: right ; vertical-align: top ; font-weight: normal&quot;&gt;4.&lt;/th&gt;&lt;td style=&quot;vertical-align: top&quot;&gt;&quot;&lt;a href=&quot;https://en.wikipedia.org/wiki/Stop_Whispering&quot; title=&quot;Stop Whispering&quot; style=&quot;text-decoration: none ; color: rgb(11 , 0 , 128) ; background-image: none&quot;&gt;Stop Whispering&lt;/a&gt;&quot;&lt;/td&gt;&lt;td style=&quot;vertical-align: top&quot;&gt;&amp;nbsp;&lt;/td&gt;&lt;td style=&quot;padding-right: 10px ; text-align: right ; vertical-align: top&quot;&gt;5:26&lt;/td&gt;&lt;/tr&gt;&lt;tr style=&quot;background-color: rgb(255 , 255 , 255)&quot;&gt;&lt;th id=&quot;track5&quot; scope=&quot;row&quot; style=&quot;padding-right: 10px ; text-align: right ; vertical-align: top ; font-weight: normal&quot;&gt;5.&lt;/th&gt;&lt;td style=&quot;vertical-align: top&quot;&gt;&quot;Thinking About You&quot;&lt;/td&gt;&lt;td style=&quot;vertical-align: top&quot;&gt;&amp;nbsp;&lt;/td&gt;&lt;td style=&quot;padding-right: 10px ; text-align: right ; vertical-align: top&quot;&gt;2:41&lt;/td&gt;&lt;/tr&gt;&lt;tr style=&quot;background-color: rgb(247 , 247 , 247)&quot;&gt;&lt;th id=&quot;track6&quot; scope=&quot;row&quot; style=&quot;padding-right: 10px ; text-align: right ; vertical-align: top ; font-weight: normal&quot;&gt;6.&lt;/th&gt;&lt;td style=&quot;vertical-align: top&quot;&gt;&quot;&lt;a href=&quot;https://en.wikipedia.org/wiki/Anyone_Can_Play_Guitar&quot; title=&quot;Anyone Can Play Guitar&quot; style=&quot;text-decoration: none ; color: rgb(11 , 0 , 128) ; background-image: none&quot;&gt;Anyone Can Play Guitar&lt;/a&gt;&quot;&lt;/td&gt;&lt;td style=&quot;vertical-align: top&quot;&gt;&amp;nbsp;&lt;/td&gt;&lt;td style=&quot;padding-right: 10px ; text-align: right ; vertical-align: top&quot;&gt;3:38&lt;/td&gt;&lt;/tr&gt;&lt;tr style=&quot;background-color: rgb(255 , 255 , 255)&quot;&gt;&lt;th id=&quot;track7&quot; scope=&quot;row&quot; style=&quot;padding-right: 10px ; text-align: right ; vertical-align: top ; font-weight: normal&quot;&gt;7.&lt;/th&gt;&lt;td style=&quot;vertical-align: top&quot;&gt;&quot;Ripcord&quot;&lt;/td&gt;&lt;td style=&quot;vertical-align: top&quot;&gt;&amp;nbsp;&lt;/td&gt;&lt;td style=&quot;padding-right: 10px ; text-align: right ; vertical-align: top&quot;&gt;3:10&lt;/td&gt;&lt;/tr&gt;&lt;tr style=&quot;background-color: rgb(247 , 247 , 247)&quot;&gt;&lt;th id=&quot;track8&quot; scope=&quot;row&quot; style=&quot;padding-right: 10px ; text-align: right ; vertical-align: top ; font-weight: normal&quot;&gt;8.&lt;/th&gt;&lt;td style=&quot;vertical-align: top&quot;&gt;&quot;Vegetable&quot;&lt;/td&gt;&lt;td style=&quot;vertical-align: top&quot;&gt;&amp;nbsp;&lt;/td&gt;&lt;td style=&quot;padding-right: 10px ; text-align: right ; vertical-align: top&quot;&gt;3:13&lt;/td&gt;&lt;/tr&gt;&lt;tr style=&quot;background-color: rgb(255 , 255 , 255)&quot;&gt;&lt;th id=&quot;track9&quot; scope=&quot;row&quot; style=&quot;padding-right: 10px ; text-align: right ; vertical-align: top ; font-weight: normal&quot;&gt;9.&lt;/th&gt;&lt;td style=&quot;vertical-align: top&quot;&gt;&quot;Prove Yourself&quot;&lt;/td&gt;&lt;td style=&quot;vertical-align: top&quot;&gt;&amp;nbsp;&lt;/td&gt;&lt;td style=&quot;padding-right: 10px ; text-align: right ; vertical-align: top&quot;&gt;2:25&lt;/td&gt;&lt;/tr&gt;&lt;tr style=&quot;background-color: rgb(247 , 247 , 247)&quot;&gt;&lt;th id=&quot;track10&quot; scope=&quot;row&quot; style=&quot;padding-right: 10px ; text-align: right ; vertical-align: top ; font-weight: normal&quot;&gt;10.&lt;/th&gt;&lt;td style=&quot;vertical-align: top&quot;&gt;&quot;I Can&#39;t&quot;&lt;/td&gt;&lt;td style=&quot;vertical-align: top&quot;&gt;&amp;nbsp;&lt;/td&gt;&lt;td style=&quot;padding-right: 10px ; text-align: right ; vertical-align: top&quot;&gt;4:13&lt;/td&gt;&lt;/tr&gt;&lt;tr style=&quot;background-color: rgb(255 , 255 , 255)&quot;&gt;&lt;th id=&quot;track11&quot; scope=&quot;row&quot; style=&quot;padding-right: 10px ; text-align: right ; vertical-align: top ; font-weight: normal&quot;&gt;11.&lt;/th&gt;&lt;td style=&quot;vertical-align: top&quot;&gt;&quot;Lurgee&quot;&lt;/td&gt;&lt;td style=&quot;vertical-align: top&quot;&gt;&amp;nbsp;&lt;/td&gt;&lt;td style=&quot;padding-right: 10px ; text-align: right ; vertical-align: top&quot;&gt;3:08&lt;/td&gt;&lt;/tr&gt;&lt;tr style=&quot;background-color: rgb(247 , 247 , 247)&quot;&gt;&lt;th id=&quot;track12&quot; scope=&quot;row&quot; style=&quot;padding-right: 10px ; text-align: right ; vertical-align: top ; font-weight: normal&quot;&gt;12.&lt;/th&gt;&lt;td style=&quot;vertical-align: top&quot;&gt;&quot;Blow Out&quot;&lt;/td&gt;&lt;/tr&gt;&lt;/tbody&gt;&lt;/table&gt;" style="rounded=0;whiteSpace=wrap;html=1;labelBackgroundColor=none;labelBorderColor=none;strokeColor=#FFFFFF;flipH=0;" parent="1" vertex="1">
          <mxGeometry x="-150" y="360" width="120" height="350" as="geometry" />
        </mxCell>
        <mxCell id="46EWXBRDZcVMdpm390SN-54" value="&lt;table class=&quot;tracklist&quot; style=&quot;font-style: normal; font-weight: 400; letter-spacing: normal; text-indent: 0px; text-transform: none; word-spacing: 0px; text-decoration: none; font-size: 14px; color: rgb(32, 33, 34); font-family: sans-serif; display: block; border-spacing: 0px;&quot;&gt;&lt;tbody&gt;&lt;tr&gt;&lt;th class=&quot;tlheader&quot; scope=&quot;col&quot; style=&quot;width: 2em ; padding-left: 10px ; padding-right: 10px ; text-align: right ; background-color: rgb(238 , 238 , 238)&quot;&gt;&lt;abbr title=&quot;Number&quot; style=&quot;border-bottom-width: 1px ; border-bottom-style: dotted ; cursor: help&quot;&gt;No.&lt;/abbr&gt;&lt;/th&gt;&lt;th class=&quot;tlheader&quot; scope=&quot;col&quot; style=&quot;width: 1720.78125px ; text-align: left ; background-color: rgb(238 , 238 , 238)&quot;&gt;Title&lt;/th&gt;&lt;th class=&quot;tlheader&quot; scope=&quot;col&quot; style=&quot;width: 4em ; padding-right: 10px ; text-align: right ; background-color: rgb(238 , 238 , 238)&quot;&gt;Length&lt;/th&gt;&lt;/tr&gt;&lt;tr style=&quot;background-color: rgb(255 , 255 , 255)&quot;&gt;&lt;th id=&quot;track1&quot; scope=&quot;row&quot; style=&quot;padding-right: 10px ; text-align: right ; vertical-align: top ; font-weight: normal&quot;&gt;1.&lt;/th&gt;&lt;td style=&quot;vertical-align: top&quot;&gt;&quot;&lt;a href=&quot;https://en.wikipedia.org/wiki/Planet_Telex&quot; class=&quot;mw-redirect&quot; title=&quot;Planet Telex&quot; style=&quot;text-decoration: none ; color: rgb(11 , 0 , 128) ; background-image: none&quot;&gt;Planet Telex&lt;/a&gt;&quot;&lt;/td&gt;&lt;td style=&quot;padding-right: 10px ; text-align: right ; vertical-align: top&quot;&gt;4:19&lt;/td&gt;&lt;/tr&gt;&lt;tr style=&quot;background-color: rgb(247 , 247 , 247)&quot;&gt;&lt;th id=&quot;track2&quot; scope=&quot;row&quot; style=&quot;padding-right: 10px ; text-align: right ; vertical-align: top ; font-weight: normal&quot;&gt;2.&lt;/th&gt;&lt;td style=&quot;vertical-align: top&quot;&gt;&quot;&lt;a href=&quot;https://en.wikipedia.org/wiki/The_Bends_(song)&quot; title=&quot;The Bends (song)&quot; style=&quot;text-decoration: none ; color: rgb(11 , 0 , 128) ; background-image: none&quot;&gt;The Bends&lt;/a&gt;&quot;&lt;/td&gt;&lt;td style=&quot;padding-right: 10px ; text-align: right ; vertical-align: top&quot;&gt;4:06&lt;/td&gt;&lt;/tr&gt;&lt;tr style=&quot;background-color: rgb(255 , 255 , 255)&quot;&gt;&lt;th id=&quot;track3&quot; scope=&quot;row&quot; style=&quot;padding-right: 10px ; text-align: right ; vertical-align: top ; font-weight: normal&quot;&gt;3.&lt;/th&gt;&lt;td style=&quot;vertical-align: top&quot;&gt;&quot;&lt;a href=&quot;https://en.wikipedia.org/wiki/High_and_Dry&quot; class=&quot;mw-redirect&quot; title=&quot;High and Dry&quot; style=&quot;text-decoration: none ; color: rgb(11 , 0 , 128) ; background-image: none&quot;&gt;High and Dry&lt;/a&gt;&quot;&lt;/td&gt;&lt;td style=&quot;padding-right: 10px ; text-align: right ; vertical-align: top&quot;&gt;4:17&lt;/td&gt;&lt;/tr&gt;&lt;tr style=&quot;background-color: rgb(247 , 247 , 247)&quot;&gt;&lt;th id=&quot;track4&quot; scope=&quot;row&quot; style=&quot;padding-right: 10px ; text-align: right ; vertical-align: top ; font-weight: normal&quot;&gt;4.&lt;/th&gt;&lt;td style=&quot;vertical-align: top&quot;&gt;&quot;&lt;a href=&quot;https://en.wikipedia.org/wiki/Fake_Plastic_Trees&quot; title=&quot;Fake Plastic Trees&quot; style=&quot;text-decoration: none ; color: rgb(11 , 0 , 128) ; background-image: none&quot;&gt;Fake Plastic Trees&lt;/a&gt;&quot;&lt;/td&gt;&lt;td style=&quot;padding-right: 10px ; text-align: right ; vertical-align: top&quot;&gt;4:50&lt;/td&gt;&lt;/tr&gt;&lt;tr style=&quot;background-color: rgb(255 , 255 , 255)&quot;&gt;&lt;th id=&quot;track5&quot; scope=&quot;row&quot; style=&quot;padding-right: 10px ; text-align: right ; vertical-align: top ; font-weight: normal&quot;&gt;5.&lt;/th&gt;&lt;td style=&quot;vertical-align: top&quot;&gt;&quot;Bones&quot;&lt;/td&gt;&lt;td style=&quot;padding-right: 10px ; text-align: right ; vertical-align: top&quot;&gt;3:09&lt;/td&gt;&lt;/tr&gt;&lt;tr style=&quot;background-color: rgb(247 , 247 , 247)&quot;&gt;&lt;th id=&quot;track6&quot; scope=&quot;row&quot; style=&quot;padding-right: 10px ; text-align: right ; vertical-align: top ; font-weight: normal&quot;&gt;6.&lt;/th&gt;&lt;td style=&quot;vertical-align: top&quot;&gt;&quot;(Nice Dream)&quot;&lt;/td&gt;&lt;td style=&quot;padding-right: 10px ; text-align: right ; vertical-align: top&quot;&gt;3:53&lt;/td&gt;&lt;/tr&gt;&lt;tr style=&quot;background-color: rgb(255 , 255 , 255)&quot;&gt;&lt;th id=&quot;track7&quot; scope=&quot;row&quot; style=&quot;padding-right: 10px ; text-align: right ; vertical-align: top ; font-weight: normal&quot;&gt;7.&lt;/th&gt;&lt;td style=&quot;vertical-align: top&quot;&gt;&quot;&lt;a href=&quot;https://en.wikipedia.org/wiki/Just_(song)&quot; title=&quot;Just (song)&quot; style=&quot;text-decoration: none ; color: rgb(11 , 0 , 128) ; background-image: none&quot;&gt;Just&lt;/a&gt;&quot;&lt;/td&gt;&lt;td style=&quot;padding-right: 10px ; text-align: right ; vertical-align: top&quot;&gt;3:54&lt;/td&gt;&lt;/tr&gt;&lt;tr style=&quot;background-color: rgb(247 , 247 , 247)&quot;&gt;&lt;th id=&quot;track8&quot; scope=&quot;row&quot; style=&quot;padding-right: 10px ; text-align: right ; vertical-align: top ; font-weight: normal&quot;&gt;8.&lt;/th&gt;&lt;td style=&quot;vertical-align: top&quot;&gt;&quot;&lt;a href=&quot;https://en.wikipedia.org/wiki/My_Iron_Lung&quot; title=&quot;My Iron Lung&quot; style=&quot;text-decoration: none ; color: rgb(11 , 0 , 128) ; background-image: none&quot;&gt;My Iron Lung&lt;/a&gt;&quot;&lt;/td&gt;&lt;td style=&quot;padding-right: 10px ; text-align: right ; vertical-align: top&quot;&gt;4:36&lt;/td&gt;&lt;/tr&gt;&lt;tr style=&quot;background-color: rgb(255 , 255 , 255)&quot;&gt;&lt;th id=&quot;track9&quot; scope=&quot;row&quot; style=&quot;padding-right: 10px ; text-align: right ; vertical-align: top ; font-weight: normal&quot;&gt;9.&lt;/th&gt;&lt;td style=&quot;vertical-align: top&quot;&gt;&quot;Bullet Proof..I Wish I Was&quot;&lt;/td&gt;&lt;td style=&quot;padding-right: 10px ; text-align: right ; vertical-align: top&quot;&gt;3:28&lt;/td&gt;&lt;/tr&gt;&lt;tr style=&quot;background-color: rgb(247 , 247 , 247)&quot;&gt;&lt;th id=&quot;track10&quot; scope=&quot;row&quot; style=&quot;padding-right: 10px ; text-align: right ; vertical-align: top ; font-weight: normal&quot;&gt;10.&lt;/th&gt;&lt;td style=&quot;vertical-align: top&quot;&gt;&quot;Black Star&quot;&lt;/td&gt;&lt;td style=&quot;padding-right: 10px ; text-align: right ; vertical-align: top&quot;&gt;4:07&lt;/td&gt;&lt;/tr&gt;&lt;tr style=&quot;background-color: rgb(255 , 255 , 255)&quot;&gt;&lt;th id=&quot;track11&quot; scope=&quot;row&quot; style=&quot;padding-right: 10px ; text-align: right ; vertical-align: top ; font-weight: normal&quot;&gt;11.&lt;/th&gt;&lt;td style=&quot;vertical-align: top&quot;&gt;&quot;Sulk&quot;&lt;/td&gt;&lt;td style=&quot;padding-right: 10px ; text-align: right ; vertical-align: top&quot;&gt;3:42&lt;/td&gt;&lt;/tr&gt;&lt;tr style=&quot;background-color: rgb(247 , 247 , 247)&quot;&gt;&lt;th id=&quot;track12&quot; scope=&quot;row&quot; style=&quot;padding-right: 10px ; text-align: right ; vertical-align: top ; font-weight: normal&quot;&gt;12.&lt;/th&gt;&lt;td style=&quot;vertical-align: top&quot;&gt;&quot;&lt;a href=&quot;https://en.wikipedia.org/wiki/Street_Spirit_(Fade_Out)&quot; title=&quot;Street Spirit (Fade Out)&quot; style=&quot;text-decoration: none ; color: rgb(11 , 0 , 128) ; background-image: none&quot;&gt;Street Spirit (Fade Out)&lt;/a&gt;&quot;&lt;/td&gt;&lt;/tr&gt;&lt;/tbody&gt;&lt;/table&gt;" style="rounded=0;whiteSpace=wrap;html=1;labelBackgroundColor=none;labelBorderColor=none;strokeColor=#FFFFFF;flipH=0;" parent="1" vertex="1">
          <mxGeometry x="70" y="360" width="340" height="230" as="geometry" />
        </mxCell>
        <mxCell id="46EWXBRDZcVMdpm390SN-55" value="&lt;li style=&quot;font-style: normal ; font-weight: 400 ; letter-spacing: normal ; text-indent: 0px ; text-transform: none ; word-spacing: 0px ; text-decoration: none ; margin-bottom: 0.1em ; color: rgb(32 , 33 , 34) ; font-family: sans-serif ; font-size: 14px&quot;&gt;&quot;Airbag&quot;&amp;nbsp;– 4:44&lt;/li&gt;&lt;li style=&quot;font-style: normal ; font-weight: 400 ; letter-spacing: normal ; text-indent: 0px ; text-transform: none ; word-spacing: 0px ; text-decoration: none ; margin-bottom: 0.1em ; color: rgb(32 , 33 , 34) ; font-family: sans-serif ; font-size: 14px&quot;&gt;&quot;&lt;a href=&quot;https://en.wikipedia.org/wiki/Paranoid_Android&quot; title=&quot;Paranoid Android&quot; style=&quot;text-decoration: none ; color: rgb(11 , 0 , 128) ; background-image: none&quot;&gt;Paranoid Android&lt;/a&gt;&quot;&amp;nbsp;– 6:26&lt;/li&gt;&lt;li style=&quot;font-style: normal ; font-weight: 400 ; letter-spacing: normal ; text-indent: 0px ; text-transform: none ; word-spacing: 0px ; text-decoration: none ; margin-bottom: 0.1em ; color: rgb(32 , 33 , 34) ; font-family: sans-serif ; font-size: 14px&quot;&gt;&quot;Subterranean Homesick Alien&quot;&amp;nbsp;– 4:28&lt;/li&gt;&lt;li style=&quot;font-style: normal ; font-weight: 400 ; letter-spacing: normal ; text-indent: 0px ; text-transform: none ; word-spacing: 0px ; text-decoration: none ; margin-bottom: 0.1em ; color: rgb(32 , 33 , 34) ; font-family: sans-serif ; font-size: 14px&quot;&gt;&quot;Exit Music (For a Film)&quot;&amp;nbsp;– 4:28&lt;/li&gt;&lt;li style=&quot;font-style: normal ; font-weight: 400 ; letter-spacing: normal ; text-indent: 0px ; text-transform: none ; word-spacing: 0px ; text-decoration: none ; margin-bottom: 0.1em ; color: rgb(32 , 33 , 34) ; font-family: sans-serif ; font-size: 14px&quot;&gt;&quot;&lt;a href=&quot;https://en.wikipedia.org/wiki/Let_Down_(Radiohead_song)&quot; title=&quot;Let Down (Radiohead song)&quot; style=&quot;text-decoration: none ; color: rgb(11 , 0 , 128) ; background-image: none&quot;&gt;Let Down&lt;/a&gt;&quot;&amp;nbsp;– 4:59&lt;/li&gt;&lt;li style=&quot;font-style: normal ; font-weight: 400 ; letter-spacing: normal ; text-indent: 0px ; text-transform: none ; word-spacing: 0px ; text-decoration: none ; margin-bottom: 0.1em ; color: rgb(32 , 33 , 34) ; font-family: sans-serif ; font-size: 14px&quot;&gt;&quot;&lt;a href=&quot;https://en.wikipedia.org/wiki/Karma_Police&quot; title=&quot;Karma Police&quot; style=&quot;text-decoration: none ; color: rgb(11 , 0 , 128) ; background-image: none&quot;&gt;Karma Police&lt;/a&gt;&quot;&amp;nbsp;– 4:25&lt;/li&gt;&lt;li style=&quot;font-style: normal ; font-weight: 400 ; letter-spacing: normal ; text-indent: 0px ; text-transform: none ; word-spacing: 0px ; text-decoration: none ; margin-bottom: 0.1em ; color: rgb(32 , 33 , 34) ; font-family: sans-serif ; font-size: 14px&quot;&gt;&quot;Fitter Happier&quot;&amp;nbsp;– 1:58&lt;/li&gt;&lt;li style=&quot;font-style: normal ; font-weight: 400 ; letter-spacing: normal ; text-indent: 0px ; text-transform: none ; word-spacing: 0px ; text-decoration: none ; margin-bottom: 0.1em ; color: rgb(32 , 33 , 34) ; font-family: sans-serif ; font-size: 14px&quot;&gt;&quot;Electioneering&quot;&amp;nbsp;– 3:50&lt;/li&gt;&lt;li style=&quot;font-style: normal ; font-weight: 400 ; letter-spacing: normal ; text-indent: 0px ; text-transform: none ; word-spacing: 0px ; text-decoration: none ; margin-bottom: 0.1em ; color: rgb(32 , 33 , 34) ; font-family: sans-serif ; font-size: 14px&quot;&gt;&quot;Climbing Up the Walls&quot;&amp;nbsp;– 4:44&lt;/li&gt;&lt;li style=&quot;font-style: normal ; font-weight: 400 ; letter-spacing: normal ; text-indent: 0px ; text-transform: none ; word-spacing: 0px ; text-decoration: none ; margin-bottom: 0.1em ; color: rgb(32 , 33 , 34) ; font-family: sans-serif ; font-size: 14px&quot;&gt;&quot;&lt;a href=&quot;https://en.wikipedia.org/wiki/No_Surprises&quot; title=&quot;No Surprises&quot; style=&quot;text-decoration: none ; color: rgb(11 , 0 , 128) ; background-image: none&quot;&gt;No Surprises&lt;/a&gt;&quot;&amp;nbsp;– 3:51&lt;/li&gt;&lt;li style=&quot;font-style: normal ; font-weight: 400 ; letter-spacing: normal ; text-indent: 0px ; text-transform: none ; word-spacing: 0px ; text-decoration: none ; margin-bottom: 0.1em ; color: rgb(32 , 33 , 34) ; font-family: sans-serif ; font-size: 14px&quot;&gt;&quot;&lt;a href=&quot;https://en.wikipedia.org/wiki/Lucky_(Radiohead_song)&quot; title=&quot;Lucky (Radiohead song)&quot; style=&quot;text-decoration: none ; color: rgb(11 , 0 , 128) ; background-image: none&quot;&gt;Lucky&lt;/a&gt;&quot;&amp;nbsp;– 4:21&lt;/li&gt;&lt;li style=&quot;font-style: normal ; font-weight: 400 ; letter-spacing: normal ; text-indent: 0px ; text-transform: none ; word-spacing: 0px ; text-decoration: none ; margin-bottom: 0.1em ; color: rgb(32 , 33 , 34) ; font-family: sans-serif ; font-size: 14px&quot;&gt;&quot;The Tourist&quot;&amp;nbsp;– 5:27&lt;/li&gt;" style="rounded=0;whiteSpace=wrap;html=1;labelBackgroundColor=none;labelBorderColor=none;align=left;spacingLeft=10;strokeColor=#FFFFFF;flipH=0;" parent="1" vertex="1">
          <mxGeometry x="425" y="360" width="290" height="230" as="geometry" />
        </mxCell>
        <mxCell id="46EWXBRDZcVMdpm390SN-57" style="edgeStyle=orthogonalEdgeStyle;rounded=0;orthogonalLoop=1;jettySize=auto;html=1;exitX=0.5;exitY=1;exitDx=0;exitDy=0;startArrow=none;startFill=0;endArrow=classic;endFill=1;" parent="1" source="46EWXBRDZcVMdpm390SN-55" target="46EWXBRDZcVMdpm390SN-55" edge="1">
          <mxGeometry relative="1" as="geometry" />
        </mxCell>
        <mxCell id="46EWXBRDZcVMdpm390SN-65" value="&lt;meta charset=&quot;utf-8&quot;&gt;&lt;table class=&quot;tracklist&quot; style=&quot;font-style: normal; font-weight: 400; letter-spacing: normal; text-indent: 0px; text-transform: none; word-spacing: 0px; text-decoration: none; font-size: 14px; color: rgb(32, 33, 34); font-family: sans-serif; display: block; border-spacing: 0px;&quot;&gt;&lt;tbody&gt;&lt;tr&gt;&lt;th class=&quot;tlheader&quot; scope=&quot;col&quot; style=&quot;width: 2em ; padding-left: 10px ; padding-right: 10px ; text-align: right ; background-color: rgb(238 , 238 , 238)&quot;&gt;&lt;abbr title=&quot;Number&quot; style=&quot;border-bottom-width: 1px ; border-bottom-style: dotted ; cursor: help&quot;&gt;No.&lt;/abbr&gt;&lt;/th&gt;&lt;th class=&quot;tlheader&quot; scope=&quot;col&quot; style=&quot;width: 1720.78125px ; text-align: left ; background-color: rgb(238 , 238 , 238)&quot;&gt;Title&lt;/th&gt;&lt;th class=&quot;tlheader&quot; scope=&quot;col&quot; style=&quot;width: 4em ; padding-right: 10px ; text-align: right ; background-color: rgb(238 , 238 , 238)&quot;&gt;Length&lt;/th&gt;&lt;/tr&gt;&lt;tr style=&quot;background-color: rgb(255 , 255 , 255)&quot;&gt;&lt;th id=&quot;track1&quot; scope=&quot;row&quot; style=&quot;padding-right: 10px ; text-align: right ; vertical-align: top ; font-weight: normal&quot;&gt;1.&lt;/th&gt;&lt;td style=&quot;vertical-align: top&quot;&gt;&quot;&lt;a href=&quot;https://en.wikipedia.org/wiki/Everything_in_Its_Right_Place&quot; title=&quot;Everything in Its Right Place&quot; style=&quot;text-decoration: none ; color: rgb(11 , 0 , 128) ; background-image: none&quot;&gt;Everything in Its Right Place&lt;/a&gt;&quot;&lt;/td&gt;&lt;td style=&quot;padding-right: 10px ; text-align: right ; vertical-align: top&quot;&gt;4:11&lt;/td&gt;&lt;/tr&gt;&lt;tr style=&quot;background-color: rgb(247 , 247 , 247)&quot;&gt;&lt;th id=&quot;track2&quot; scope=&quot;row&quot; style=&quot;padding-right: 10px ; text-align: right ; vertical-align: top ; font-weight: normal&quot;&gt;2.&lt;/th&gt;&lt;td style=&quot;vertical-align: top&quot;&gt;&quot;Kid A&quot;&lt;/td&gt;&lt;td style=&quot;padding-right: 10px ; text-align: right ; vertical-align: top&quot;&gt;4:44&lt;/td&gt;&lt;/tr&gt;&lt;tr style=&quot;background-color: rgb(255 , 255 , 255)&quot;&gt;&lt;th id=&quot;track3&quot; scope=&quot;row&quot; style=&quot;padding-right: 10px ; text-align: right ; vertical-align: top ; font-weight: normal&quot;&gt;3.&lt;/th&gt;&lt;td style=&quot;vertical-align: top&quot;&gt;&quot;&lt;a href=&quot;https://en.wikipedia.org/wiki/The_National_Anthem_(Radiohead_song)&quot; title=&quot;The National Anthem (Radiohead song)&quot; style=&quot;text-decoration: none ; color: rgb(11 , 0 , 128) ; background-image: none&quot;&gt;The National Anthem&lt;/a&gt;&quot;&lt;/td&gt;&lt;td style=&quot;padding-right: 10px ; text-align: right ; vertical-align: top&quot;&gt;5:51&lt;/td&gt;&lt;/tr&gt;&lt;tr style=&quot;background-color: rgb(247 , 247 , 247)&quot;&gt;&lt;th id=&quot;track4&quot; scope=&quot;row&quot; style=&quot;padding-right: 10px ; text-align: right ; vertical-align: top ; font-weight: normal&quot;&gt;4.&lt;/th&gt;&lt;td style=&quot;vertical-align: top&quot;&gt;&quot;How to Disappear Completely&quot;&lt;/td&gt;&lt;td style=&quot;padding-right: 10px ; text-align: right ; vertical-align: top&quot;&gt;5:56&lt;/td&gt;&lt;/tr&gt;&lt;tr style=&quot;background-color: rgb(255 , 255 , 255)&quot;&gt;&lt;th id=&quot;track5&quot; scope=&quot;row&quot; style=&quot;padding-right: 10px ; text-align: right ; vertical-align: top ; font-weight: normal&quot;&gt;5.&lt;/th&gt;&lt;td style=&quot;vertical-align: top&quot;&gt;&quot;Treefingers&quot;&lt;/td&gt;&lt;td style=&quot;padding-right: 10px ; text-align: right ; vertical-align: top&quot;&gt;3:42&lt;/td&gt;&lt;/tr&gt;&lt;tr style=&quot;background-color: rgb(247 , 247 , 247)&quot;&gt;&lt;th id=&quot;track6&quot; scope=&quot;row&quot; style=&quot;padding-right: 10px ; text-align: right ; vertical-align: top ; font-weight: normal&quot;&gt;6.&lt;/th&gt;&lt;td style=&quot;vertical-align: top&quot;&gt;&quot;Optimistic&quot;&lt;/td&gt;&lt;td style=&quot;padding-right: 10px ; text-align: right ; vertical-align: top&quot;&gt;5:15&lt;/td&gt;&lt;/tr&gt;&lt;tr style=&quot;background-color: rgb(255 , 255 , 255)&quot;&gt;&lt;th id=&quot;track7&quot; scope=&quot;row&quot; style=&quot;padding-right: 10px ; text-align: right ; vertical-align: top ; font-weight: normal&quot;&gt;7.&lt;/th&gt;&lt;td style=&quot;vertical-align: top&quot;&gt;&quot;In Limbo&quot;&lt;/td&gt;&lt;td style=&quot;padding-right: 10px ; text-align: right ; vertical-align: top&quot;&gt;3:31&lt;/td&gt;&lt;/tr&gt;&lt;tr style=&quot;background-color: rgb(247 , 247 , 247)&quot;&gt;&lt;th id=&quot;track8&quot; scope=&quot;row&quot; style=&quot;padding-right: 10px ; text-align: right ; vertical-align: top ; font-weight: normal&quot;&gt;8.&lt;/th&gt;&lt;td style=&quot;vertical-align: top&quot;&gt;&quot;&lt;a href=&quot;https://en.wikipedia.org/wiki/Idioteque&quot; title=&quot;Idioteque&quot; style=&quot;text-decoration: none ; color: rgb(11 , 0 , 128) ; background-image: none&quot;&gt;Idioteque&lt;/a&gt;&quot;&lt;span class=&quot;Apple-converted-space&quot;&gt;&amp;nbsp;&lt;/span&gt;&lt;span&gt;(Radiohead,&lt;span class=&quot;Apple-converted-space&quot;&gt;&amp;nbsp;&lt;/span&gt;&lt;a href=&quot;https://en.wikipedia.org/wiki/Paul_Lansky&quot; title=&quot;Paul Lansky&quot; style=&quot;text-decoration: none ; color: rgb(11 , 0 , 128) ; background-image: none&quot;&gt;Paul Lansky&lt;/a&gt;, Arthur Kreiger)&lt;/span&gt;&lt;/td&gt;&lt;td style=&quot;padding-right: 10px ; text-align: right ; vertical-align: top&quot;&gt;5:09&lt;/td&gt;&lt;/tr&gt;&lt;tr style=&quot;background-color: rgb(255 , 255 , 255)&quot;&gt;&lt;th id=&quot;track9&quot; scope=&quot;row&quot; style=&quot;padding-right: 10px ; text-align: right ; vertical-align: top ; font-weight: normal&quot;&gt;9.&lt;/th&gt;&lt;td style=&quot;vertical-align: top&quot;&gt;&quot;Morning Bell&quot;&lt;/td&gt;&lt;td style=&quot;padding-right: 10px ; text-align: right ; vertical-align: top&quot;&gt;4:35&lt;/td&gt;&lt;/tr&gt;&lt;tr style=&quot;background-color: rgb(247 , 247 , 247)&quot;&gt;&lt;th id=&quot;track10&quot; scope=&quot;row&quot; style=&quot;padding-right: 10px ; text-align: right ; vertical-align: top ; font-weight: normal&quot;&gt;10.&lt;/th&gt;&lt;td style=&quot;vertical-align: top&quot;&gt;&quot;Motion Picture Soundtrack&quot;&lt;span class=&quot;Apple-converted-space&quot;&gt;&amp;nbsp;&lt;/span&gt;&lt;span&gt;(song ends at 3:20; includes an untitled hidden track from 4:17 until 5:09, followed by 1:51 of silence)&lt;/span&gt;&lt;/td&gt;&lt;td style=&quot;padding-right: 10px ; text-align: right ; vertical-align: top&quot;&gt;7:01&lt;/td&gt;&lt;/tr&gt;&lt;/tbody&gt;&lt;/table&gt;" style="rounded=0;whiteSpace=wrap;html=1;labelBackgroundColor=none;labelBorderColor=none;fontSize=20;fontColor=#FF0000;strokeColor=#FFFFFF;fillColor=#FFFFFF;flipH=0;" parent="1" vertex="1">
          <mxGeometry x="840" y="360" width="120" height="330" as="geometry" />
        </mxCell>
        <mxCell id="46EWXBRDZcVMdpm390SN-69" value="&lt;table class=&quot;tracklist&quot; style=&quot;font-style: normal; font-weight: 400; letter-spacing: normal; text-indent: 0px; text-transform: none; word-spacing: 0px; text-decoration: none; font-size: 14px; color: rgb(32, 33, 34); font-family: sans-serif; display: block; border-spacing: 0px;&quot;&gt;&lt;tbody&gt;&lt;tr&gt;&lt;th class=&quot;tlheader&quot; scope=&quot;col&quot; style=&quot;width: 2em ; padding-left: 10px ; padding-right: 10px ; text-align: right ; background-color: rgb(238 , 238 , 238)&quot;&gt;&lt;abbr title=&quot;Number&quot; style=&quot;border-bottom-width: 1px ; border-bottom-style: dotted ; cursor: help&quot;&gt;No.&lt;/abbr&gt;&lt;/th&gt;&lt;th class=&quot;tlheader&quot; scope=&quot;col&quot; style=&quot;width: 1720.78125px ; text-align: left ; background-color: rgb(238 , 238 , 238)&quot;&gt;Title&lt;/th&gt;&lt;th class=&quot;tlheader&quot; scope=&quot;col&quot; style=&quot;width: 4em ; padding-right: 10px ; text-align: right ; background-color: rgb(238 , 238 , 238)&quot;&gt;Length&lt;/th&gt;&lt;/tr&gt;&lt;tr style=&quot;background-color: rgb(255 , 255 , 255)&quot;&gt;&lt;th id=&quot;track1&quot; scope=&quot;row&quot; style=&quot;padding-right: 10px ; text-align: right ; vertical-align: top ; font-weight: normal&quot;&gt;1.&lt;/th&gt;&lt;td style=&quot;vertical-align: top&quot;&gt;&quot;15 Step&quot;&lt;/td&gt;&lt;td style=&quot;padding-right: 10px ; text-align: right ; vertical-align: top&quot;&gt;3:58&lt;/td&gt;&lt;/tr&gt;&lt;tr style=&quot;background-color: rgb(247 , 247 , 247)&quot;&gt;&lt;th id=&quot;track2&quot; scope=&quot;row&quot; style=&quot;padding-right: 10px ; text-align: right ; vertical-align: top ; font-weight: normal&quot;&gt;2.&lt;/th&gt;&lt;td style=&quot;vertical-align: top&quot;&gt;&quot;&lt;a href=&quot;https://en.wikipedia.org/wiki/Bodysnatchers_(song)&quot; title=&quot;Bodysnatchers (song)&quot; style=&quot;text-decoration: none ; color: rgb(11 , 0 , 128) ; background-image: none&quot;&gt;Bodysnatchers&lt;/a&gt;&quot;&lt;/td&gt;&lt;td style=&quot;padding-right: 10px ; text-align: right ; vertical-align: top&quot;&gt;4:02&lt;/td&gt;&lt;/tr&gt;&lt;tr style=&quot;background-color: rgb(255 , 255 , 255)&quot;&gt;&lt;th id=&quot;track3&quot; scope=&quot;row&quot; style=&quot;padding-right: 10px ; text-align: right ; vertical-align: top ; font-weight: normal&quot;&gt;3.&lt;/th&gt;&lt;td style=&quot;vertical-align: top&quot;&gt;&quot;&lt;a href=&quot;https://en.wikipedia.org/wiki/Nude_(song)&quot; title=&quot;Nude (song)&quot; style=&quot;text-decoration: none ; color: rgb(11 , 0 , 128) ; background-image: none&quot;&gt;Nude&lt;/a&gt;&quot;&lt;/td&gt;&lt;td style=&quot;padding-right: 10px ; text-align: right ; vertical-align: top&quot;&gt;4:15&lt;/td&gt;&lt;/tr&gt;&lt;tr style=&quot;background-color: rgb(247 , 247 , 247)&quot;&gt;&lt;th id=&quot;track4&quot; scope=&quot;row&quot; style=&quot;padding-right: 10px ; text-align: right ; vertical-align: top ; font-weight: normal&quot;&gt;4.&lt;/th&gt;&lt;td style=&quot;vertical-align: top&quot;&gt;&quot;Weird Fishes/Arpeggi&quot;&lt;/td&gt;&lt;td style=&quot;padding-right: 10px ; text-align: right ; vertical-align: top&quot;&gt;5:18&lt;/td&gt;&lt;/tr&gt;&lt;tr style=&quot;background-color: rgb(255 , 255 , 255)&quot;&gt;&lt;th id=&quot;track5&quot; scope=&quot;row&quot; style=&quot;padding-right: 10px ; text-align: right ; vertical-align: top ; font-weight: normal&quot;&gt;5.&lt;/th&gt;&lt;td style=&quot;vertical-align: top&quot;&gt;&quot;&lt;a href=&quot;https://en.wikipedia.org/wiki/All_I_Need_(Radiohead_song)&quot; title=&quot;All I Need (Radiohead song)&quot; style=&quot;text-decoration: none ; color: rgb(11 , 0 , 128) ; background-image: none&quot;&gt;All I Need&lt;/a&gt;&quot;&lt;/td&gt;&lt;td style=&quot;padding-right: 10px ; text-align: right ; vertical-align: top&quot;&gt;3:49&lt;/td&gt;&lt;/tr&gt;&lt;tr style=&quot;background-color: rgb(247 , 247 , 247)&quot;&gt;&lt;th id=&quot;track6&quot; scope=&quot;row&quot; style=&quot;padding-right: 10px ; text-align: right ; vertical-align: top ; font-weight: normal&quot;&gt;6.&lt;/th&gt;&lt;td style=&quot;vertical-align: top&quot;&gt;&quot;Faust Arp&quot;&lt;/td&gt;&lt;td style=&quot;padding-right: 10px ; text-align: right ; vertical-align: top&quot;&gt;2:10&lt;/td&gt;&lt;/tr&gt;&lt;tr style=&quot;background-color: rgb(255 , 255 , 255)&quot;&gt;&lt;th id=&quot;track7&quot; scope=&quot;row&quot; style=&quot;padding-right: 10px ; text-align: right ; vertical-align: top ; font-weight: normal&quot;&gt;7.&lt;/th&gt;&lt;td style=&quot;vertical-align: top&quot;&gt;&quot;&lt;a href=&quot;https://en.wikipedia.org/wiki/Reckoner&quot; title=&quot;Reckoner&quot; style=&quot;text-decoration: none ; color: rgb(11 , 0 , 128) ; background-image: none&quot;&gt;Reckoner&lt;/a&gt;&quot;&lt;/td&gt;&lt;td style=&quot;padding-right: 10px ; text-align: right ; vertical-align: top&quot;&gt;4:50&lt;/td&gt;&lt;/tr&gt;&lt;tr style=&quot;background-color: rgb(247 , 247 , 247)&quot;&gt;&lt;th id=&quot;track8&quot; scope=&quot;row&quot; style=&quot;padding-right: 10px ; text-align: right ; vertical-align: top ; font-weight: normal&quot;&gt;8.&lt;/th&gt;&lt;td style=&quot;vertical-align: top&quot;&gt;&quot;&lt;a href=&quot;https://en.wikipedia.org/wiki/House_of_Cards_(Radiohead_song)&quot; title=&quot;House of Cards (Radiohead song)&quot; style=&quot;text-decoration: none ; color: rgb(11 , 0 , 128) ; background-image: none&quot;&gt;House of Cards&lt;/a&gt;&quot;&lt;/td&gt;&lt;td style=&quot;padding-right: 10px ; text-align: right ; vertical-align: top&quot;&gt;5:28&lt;/td&gt;&lt;/tr&gt;&lt;tr style=&quot;background-color: rgb(255 , 255 , 255)&quot;&gt;&lt;th id=&quot;track9&quot; scope=&quot;row&quot; style=&quot;padding-right: 10px ; text-align: right ; vertical-align: top ; font-weight: normal&quot;&gt;9.&lt;/th&gt;&lt;td style=&quot;vertical-align: top&quot;&gt;&quot;&lt;a href=&quot;https://en.wikipedia.org/wiki/Jigsaw_Falling_into_Place&quot; title=&quot;Jigsaw Falling into Place&quot; style=&quot;text-decoration: none ; color: rgb(11 , 0 , 128) ; background-image: none&quot;&gt;Jigsaw Falling into Place&lt;/a&gt;&quot;&lt;/td&gt;&lt;td style=&quot;padding-right: 10px ; text-align: right ; vertical-align: top&quot;&gt;4:09&lt;/td&gt;&lt;/tr&gt;&lt;tr style=&quot;background-color: rgb(247 , 247 , 247)&quot;&gt;&lt;th id=&quot;track10&quot; scope=&quot;row&quot; style=&quot;padding-right: 10px ; text-align: right ; vertical-align: top ; font-weight: normal&quot;&gt;10.&lt;/th&gt;&lt;td style=&quot;vertical-align: top&quot;&gt;&quot;Videotape&quot;&lt;/td&gt;&lt;td style=&quot;padding-right: 10px ; text-align: right ; vertical-align: top&quot;&gt;4:40&lt;/td&gt;&lt;/tr&gt;&lt;/tbody&gt;&lt;/table&gt;" style="rounded=0;whiteSpace=wrap;html=1;labelBackgroundColor=none;labelBorderColor=none;fontSize=20;fontColor=#FF0000;strokeColor=#FFFFFF;fillColor=#FFFFFF;flipH=0;" parent="1" vertex="1">
          <mxGeometry x="1130" y="360" width="120" height="250" as="geometry" />
        </mxCell>
        <mxCell id="46EWXBRDZcVMdpm390SN-71" value="&lt;table class=&quot;tracklist&quot; style=&quot;font-style: normal; font-weight: 400; letter-spacing: normal; text-indent: 0px; text-transform: none; word-spacing: 0px; text-decoration: none; font-size: 14px; color: rgb(32, 33, 34); font-family: sans-serif; display: block; border-spacing: 0px;&quot;&gt;&lt;tbody&gt;&lt;tr&gt;&lt;/tr&gt;&lt;tr&gt;&lt;th class=&quot;tlheader&quot; scope=&quot;col&quot; style=&quot;width: 2em ; padding-left: 10px ; padding-right: 10px ; text-align: right ; background-color: rgb(238 , 238 , 238)&quot;&gt;&lt;abbr title=&quot;Number&quot; style=&quot;border-bottom-width: 1px ; border-bottom-style: dotted ; cursor: help&quot;&gt;No.&lt;/abbr&gt;&lt;/th&gt;&lt;th class=&quot;tlheader&quot; scope=&quot;col&quot; style=&quot;width: 1720.78125px ; text-align: left ; background-color: rgb(238 , 238 , 238)&quot;&gt;Title&lt;/th&gt;&lt;th class=&quot;tlheader&quot; scope=&quot;col&quot; style=&quot;width: 4em ; padding-right: 10px ; text-align: right ; background-color: rgb(238 , 238 , 238)&quot;&gt;Length&lt;/th&gt;&lt;/tr&gt;&lt;tr style=&quot;background-color: rgb(255 , 255 , 255)&quot;&gt;&lt;th id=&quot;track1&quot; scope=&quot;row&quot; style=&quot;padding-right: 10px ; text-align: right ; vertical-align: top ; font-weight: normal&quot;&gt;1.&lt;/th&gt;&lt;td style=&quot;vertical-align: top&quot;&gt;&quot;Bloom&quot;&lt;/td&gt;&lt;td style=&quot;padding-right: 10px ; text-align: right ; vertical-align: top&quot;&gt;5:15&lt;/td&gt;&lt;/tr&gt;&lt;tr style=&quot;background-color: rgb(247 , 247 , 247)&quot;&gt;&lt;th id=&quot;track2&quot; scope=&quot;row&quot; style=&quot;padding-right: 10px ; text-align: right ; vertical-align: top ; font-weight: normal&quot;&gt;2.&lt;/th&gt;&lt;td style=&quot;vertical-align: top&quot;&gt;&quot;Morning Mr Magpie&quot;&lt;/td&gt;&lt;td style=&quot;padding-right: 10px ; text-align: right ; vertical-align: top&quot;&gt;4:41&lt;/td&gt;&lt;/tr&gt;&lt;tr style=&quot;background-color: rgb(255 , 255 , 255)&quot;&gt;&lt;th id=&quot;track3&quot; scope=&quot;row&quot; style=&quot;padding-right: 10px ; text-align: right ; vertical-align: top ; font-weight: normal&quot;&gt;3.&lt;/th&gt;&lt;td style=&quot;vertical-align: top&quot;&gt;&quot;Little by Little&quot;&lt;/td&gt;&lt;td style=&quot;padding-right: 10px ; text-align: right ; vertical-align: top&quot;&gt;4:27&lt;/td&gt;&lt;/tr&gt;&lt;tr style=&quot;background-color: rgb(247 , 247 , 247)&quot;&gt;&lt;th id=&quot;track4&quot; scope=&quot;row&quot; style=&quot;padding-right: 10px ; text-align: right ; vertical-align: top ; font-weight: normal&quot;&gt;4.&lt;/th&gt;&lt;td style=&quot;vertical-align: top&quot;&gt;&quot;Feral&quot;&lt;/td&gt;&lt;td style=&quot;padding-right: 10px ; text-align: right ; vertical-align: top&quot;&gt;3:13&lt;/td&gt;&lt;/tr&gt;&lt;tr style=&quot;background-color: rgb(255 , 255 , 255)&quot;&gt;&lt;th id=&quot;track5&quot; scope=&quot;row&quot; style=&quot;padding-right: 10px ; text-align: right ; vertical-align: top ; font-weight: normal&quot;&gt;5.&lt;/th&gt;&lt;td style=&quot;vertical-align: top&quot;&gt;&quot;&lt;a href=&quot;https://en.wikipedia.org/wiki/Lotus_Flower_(song)&quot; title=&quot;Lotus Flower (song)&quot; style=&quot;text-decoration: none ; color: rgb(11 , 0 , 128) ; background-image: none&quot;&gt;Lotus Flower&lt;/a&gt;&quot;&lt;/td&gt;&lt;td style=&quot;padding-right: 10px ; text-align: right ; vertical-align: top&quot;&gt;5:01&lt;/td&gt;&lt;/tr&gt;&lt;tr style=&quot;background-color: rgb(247 , 247 , 247)&quot;&gt;&lt;th id=&quot;track6&quot; scope=&quot;row&quot; style=&quot;padding-right: 10px ; text-align: right ; vertical-align: top ; font-weight: normal&quot;&gt;6.&lt;/th&gt;&lt;td style=&quot;vertical-align: top&quot;&gt;&quot;Codex&quot;&lt;/td&gt;&lt;td style=&quot;padding-right: 10px ; text-align: right ; vertical-align: top&quot;&gt;4:47&lt;/td&gt;&lt;/tr&gt;&lt;tr style=&quot;background-color: rgb(255 , 255 , 255)&quot;&gt;&lt;th id=&quot;track7&quot; scope=&quot;row&quot; style=&quot;padding-right: 10px ; text-align: right ; vertical-align: top ; font-weight: normal&quot;&gt;7.&lt;/th&gt;&lt;td style=&quot;vertical-align: top&quot;&gt;&quot;Give Up the Ghost&quot;&lt;/td&gt;&lt;td style=&quot;padding-right: 10px ; text-align: right ; vertical-align: top&quot;&gt;4:50&lt;/td&gt;&lt;/tr&gt;&lt;tr style=&quot;background-color: rgb(247 , 247 , 247)&quot;&gt;&lt;th id=&quot;track8&quot; scope=&quot;row&quot; style=&quot;padding-right: 10px ; text-align: right ; vertical-align: top ; font-weight: normal&quot;&gt;8.&lt;/th&gt;&lt;td style=&quot;vertical-align: top&quot;&gt;&quot;Separator&quot;&lt;/td&gt;&lt;td style=&quot;padding-right: 10px ; text-align: right ; vertical-align: top&quot;&gt;5:20&lt;/td&gt;&lt;/tr&gt;&lt;tr&gt;&lt;th colspan=&quot;2&quot; scope=&quot;row&quot; style=&quot;padding: 0px&quot;&gt;&lt;/th&gt;&lt;/tr&gt;&lt;/tbody&gt;&lt;/table&gt;&lt;br class=&quot;Apple-interchange-newline&quot; style=&quot;color: rgb(0, 0, 0); font-style: normal; font-weight: 400; letter-spacing: normal; text-indent: 0px; text-transform: none; word-spacing: 0px; text-decoration: none;&quot;&gt;&lt;br class=&quot;Apple-interchange-newline&quot;&gt;" style="rounded=0;whiteSpace=wrap;html=1;labelBackgroundColor=none;labelBorderColor=none;fontSize=20;fontColor=#FF0000;strokeColor=#FFFFFF;fillColor=#FFFFFF;flipH=0;" parent="1" vertex="1">
          <mxGeometry x="1368" y="360" width="120" height="270" as="geometry" />
        </mxCell>
        <mxCell id="46EWXBRDZcVMdpm390SN-73" value="&lt;table class=&quot;tracklist&quot; style=&quot;font-style: normal; font-weight: 400; letter-spacing: normal; text-indent: 0px; text-transform: none; word-spacing: 0px; text-decoration: none; font-size: 14px; color: rgb(32, 33, 34); font-family: sans-serif; display: block; border-spacing: 0px;&quot;&gt;&lt;tbody&gt;&lt;tr&gt;&lt;th class=&quot;tlheader&quot; scope=&quot;col&quot; style=&quot;width: 2em ; padding-left: 10px ; padding-right: 10px ; text-align: right ; background-color: rgb(238 , 238 , 238)&quot;&gt;&lt;abbr title=&quot;Number&quot; style=&quot;border-bottom-width: 1px ; border-bottom-style: dotted ; cursor: help&quot;&gt;No.&lt;/abbr&gt;&lt;/th&gt;&lt;th class=&quot;tlheader&quot; scope=&quot;col&quot; style=&quot;width: 1720.78125px ; text-align: left ; background-color: rgb(238 , 238 , 238)&quot;&gt;Title&lt;/th&gt;&lt;th class=&quot;tlheader&quot; scope=&quot;col&quot; style=&quot;width: 4em ; padding-right: 10px ; text-align: right ; background-color: rgb(238 , 238 , 238)&quot;&gt;Length&lt;/th&gt;&lt;/tr&gt;&lt;tr style=&quot;background-color: rgb(255 , 255 , 255)&quot;&gt;&lt;th id=&quot;track1&quot; scope=&quot;row&quot; style=&quot;padding-right: 10px ; text-align: right ; vertical-align: top ; font-weight: normal&quot;&gt;1.&lt;/th&gt;&lt;td style=&quot;vertical-align: top&quot;&gt;&quot;&lt;a href=&quot;https://en.wikipedia.org/wiki/Burn_the_Witch_(Radiohead_song)&quot; title=&quot;Burn the Witch (Radiohead song)&quot; style=&quot;text-decoration: none ; color: rgb(11 , 0 , 128) ; background-image: none&quot;&gt;Burn the Witch&lt;/a&gt;&quot;&lt;/td&gt;&lt;td style=&quot;padding-right: 10px ; text-align: right ; vertical-align: top&quot;&gt;3:40&lt;/td&gt;&lt;/tr&gt;&lt;tr style=&quot;background-color: rgb(247 , 247 , 247)&quot;&gt;&lt;th id=&quot;track2&quot; scope=&quot;row&quot; style=&quot;padding-right: 10px ; text-align: right ; vertical-align: top ; font-weight: normal&quot;&gt;2.&lt;/th&gt;&lt;td style=&quot;vertical-align: top&quot;&gt;&quot;&lt;a href=&quot;https://en.wikipedia.org/wiki/Daydreaming_(Radiohead_song)&quot; title=&quot;Daydreaming (Radiohead song)&quot; style=&quot;text-decoration: none ; color: rgb(11 , 0 , 128) ; background-image: none&quot;&gt;Daydreaming&lt;/a&gt;&quot;&lt;/td&gt;&lt;td style=&quot;padding-right: 10px ; text-align: right ; vertical-align: top&quot;&gt;6:24&lt;/td&gt;&lt;/tr&gt;&lt;tr style=&quot;background-color: rgb(255 , 255 , 255)&quot;&gt;&lt;th id=&quot;track3&quot; scope=&quot;row&quot; style=&quot;padding-right: 10px ; text-align: right ; vertical-align: top ; font-weight: normal&quot;&gt;3.&lt;/th&gt;&lt;td style=&quot;vertical-align: top&quot;&gt;&quot;Decks Dark&quot;&lt;/td&gt;&lt;td style=&quot;padding-right: 10px ; text-align: right ; vertical-align: top&quot;&gt;4:41&lt;/td&gt;&lt;/tr&gt;&lt;tr style=&quot;background-color: rgb(247 , 247 , 247)&quot;&gt;&lt;th id=&quot;track4&quot; scope=&quot;row&quot; style=&quot;padding-right: 10px ; text-align: right ; vertical-align: top ; font-weight: normal&quot;&gt;4.&lt;/th&gt;&lt;td style=&quot;vertical-align: top&quot;&gt;&quot;Desert Island Disk&quot;&lt;/td&gt;&lt;td style=&quot;padding-right: 10px ; text-align: right ; vertical-align: top&quot;&gt;3:44&lt;/td&gt;&lt;/tr&gt;&lt;tr style=&quot;background-color: rgb(255 , 255 , 255)&quot;&gt;&lt;th id=&quot;track5&quot; scope=&quot;row&quot; style=&quot;padding-right: 10px ; text-align: right ; vertical-align: top ; font-weight: normal&quot;&gt;5.&lt;/th&gt;&lt;td style=&quot;vertical-align: top&quot;&gt;&quot;Ful Stop&quot;&lt;/td&gt;&lt;td style=&quot;padding-right: 10px ; text-align: right ; vertical-align: top&quot;&gt;6:07&lt;/td&gt;&lt;/tr&gt;&lt;tr style=&quot;background-color: rgb(247 , 247 , 247)&quot;&gt;&lt;th id=&quot;track6&quot; scope=&quot;row&quot; style=&quot;padding-right: 10px ; text-align: right ; vertical-align: top ; font-weight: normal&quot;&gt;6.&lt;/th&gt;&lt;td style=&quot;vertical-align: top&quot;&gt;&quot;Glass Eyes&quot;&lt;/td&gt;&lt;td style=&quot;padding-right: 10px ; text-align: right ; vertical-align: top&quot;&gt;2:52&lt;/td&gt;&lt;/tr&gt;&lt;tr style=&quot;background-color: rgb(255 , 255 , 255)&quot;&gt;&lt;th id=&quot;track7&quot; scope=&quot;row&quot; style=&quot;padding-right: 10px ; text-align: right ; vertical-align: top ; font-weight: normal&quot;&gt;7.&lt;/th&gt;&lt;td style=&quot;vertical-align: top&quot;&gt;&quot;Identikit&quot;&lt;/td&gt;&lt;td style=&quot;padding-right: 10px ; text-align: right ; vertical-align: top&quot;&gt;4:26&lt;/td&gt;&lt;/tr&gt;&lt;tr style=&quot;background-color: rgb(247 , 247 , 247)&quot;&gt;&lt;th id=&quot;track8&quot; scope=&quot;row&quot; style=&quot;padding-right: 10px ; text-align: right ; vertical-align: top ; font-weight: normal&quot;&gt;8.&lt;/th&gt;&lt;td style=&quot;vertical-align: top&quot;&gt;&quot;The Numbers&quot;&lt;/td&gt;&lt;td style=&quot;padding-right: 10px ; text-align: right ; vertical-align: top&quot;&gt;5:45&lt;/td&gt;&lt;/tr&gt;&lt;tr style=&quot;background-color: rgb(255 , 255 , 255)&quot;&gt;&lt;th id=&quot;track9&quot; scope=&quot;row&quot; style=&quot;padding-right: 10px ; text-align: right ; vertical-align: top ; font-weight: normal&quot;&gt;9.&lt;/th&gt;&lt;td style=&quot;vertical-align: top&quot;&gt;&quot;Present Tense&quot;&lt;/td&gt;&lt;td style=&quot;padding-right: 10px ; text-align: right ; vertical-align: top&quot;&gt;5:06&lt;/td&gt;&lt;/tr&gt;&lt;tr style=&quot;background-color: rgb(247 , 247 , 247)&quot;&gt;&lt;th id=&quot;track10&quot; scope=&quot;row&quot; style=&quot;padding-right: 10px ; text-align: right ; vertical-align: top ; font-weight: normal&quot;&gt;10.&lt;/th&gt;&lt;td style=&quot;vertical-align: top&quot;&gt;&quot;Tinker Tailor Soldier Sailor Rich Man Poor Man Beggar Man Thief&quot;&lt;/td&gt;&lt;td style=&quot;padding-right: 10px ; text-align: right ; vertical-align: top&quot;&gt;5:03&lt;/td&gt;&lt;/tr&gt;&lt;tr style=&quot;background-color: rgb(255 , 255 , 255)&quot;&gt;&lt;th id=&quot;track11&quot; scope=&quot;row&quot; style=&quot;padding-right: 10px ; text-align: right ; vertical-align: top ; font-weight: normal&quot;&gt;11.&lt;/th&gt;&lt;td style=&quot;vertical-align: top&quot;&gt;&quot;&lt;a href=&quot;https://en.wikipedia.org/wiki/True_Love_Waits_(song)&quot; title=&quot;True Love Waits (song)&quot; style=&quot;text-decoration: none ; color: rgb(11 , 0 , 128) ; background-image: none&quot;&gt;True Love Waits&lt;/a&gt;&quot;&lt;/td&gt;&lt;td style=&quot;padding-right: 10px ; text-align: right ; vertical-align: top&quot;&gt;4:43&lt;/td&gt;&lt;/tr&gt;&lt;/tbody&gt;&lt;/table&gt;" style="rounded=0;whiteSpace=wrap;html=1;labelBackgroundColor=none;labelBorderColor=none;fontSize=20;fontColor=#FF0000;strokeColor=#FFFFFF;fillColor=#FFFFFF;flipH=0;" parent="1" vertex="1">
          <mxGeometry x="1562.5" y="360" width="305" height="250" as="geometry" />
        </mxCell>
      </root>
    </mxGraphModel>
  </diagram>
</mxfile>
